<svg xmlns="http://www.w3.org/2000/svg" viewBox="0 0 768.81 172.41"><defs><style>.cls-1{isolation:isolate;}.cls-2{opacity:0.75;mix-blend-mode:soft-light;}.cls-3{fill:#72726f;}.cls-4{fill:#eb5b62;}</style></defs><g class="cls-1"><g id="Layer_1" data-name="Layer 1"><g class="cls-2"><path class="cls-3" d="M297.33,73.07a22.33,22.33,0,0,0-11.71-3A21.25,21.25,0,0,0,275,72.83a27.74,27.74,0,0,0-7.53,6.57,20,20,0,0,0-6.38-6.51,20.3,20.3,0,0,0-10.81-2.8,22.48,22.48,0,0,0-10.92,2.7,26.78,26.78,0,0,0-6.68,5.38,9.85,9.85,0,0,0-2.36-5.37A8.25,8.25,0,0,0,223.92,70,7.85,7.85,0,0,0,217.5,73c-1.55,1.94-2.33,4.72-2.33,8.28v49.34c0,3.91.86,6.94,2.57,9a8.5,8.5,0,0,0,6.87,3.27,8.4,8.4,0,0,0,6.88-3.28c1.65-2.08,2.5-5.11,2.5-9V107.33c0-7,.77-12.45,2.3-16.14,1.38-3.32,4.24-4.94,8.73-4.94,2.09,0,3.55.58,4.45,1.75a10.41,10.41,0,0,1,1.88,5.21c.25,2.34.39,5.69.39,10v27.48c0,3.94.84,7,2.5,9a8.36,8.36,0,0,0,6.82,3.25,8.56,8.56,0,0,0,6.95-3.24c1.69-2.06,2.54-5.1,2.54-9.05V107.71c0-7.16.54-12.17,1.58-14.84A12.16,12.16,0,0,1,276,88a8.29,8.29,0,0,1,5-1.75A5.57,5.57,0,0,1,285.55,88a9.46,9.46,0,0,1,2,4.9,71.73,71.73,0,0,1,.42,8.73v29c0,3.91.86,6.94,2.56,9a9,9,0,0,0,13.83,0c1.68-2.06,2.54-5.1,2.54-9.05V97c0-7-.69-12-2.11-15.29A18.53,18.53,0,0,0,297.33,73.07Z"/><path class="cls-3" d="M371.36,80.18A29.29,29.29,0,0,0,361,72.61a35,35,0,0,0-26.61,0,28.91,28.91,0,0,0-10.29,7.48,33.44,33.44,0,0,0-6.47,11.61,46.92,46.92,0,0,0-2.24,14.79,46.44,46.44,0,0,0,2.21,14.63,33.32,33.32,0,0,0,6.53,11.6,29.7,29.7,0,0,0,10.24,7.6,32.17,32.17,0,0,0,13.26,2.65A33.05,33.05,0,0,0,361,140.31a29.07,29.07,0,0,0,10.27-7.53,33.73,33.73,0,0,0,6.54-11.67,49.65,49.65,0,0,0,0-29.33A33.49,33.49,0,0,0,371.36,80.18Zm-23.7,47.09a11.28,11.28,0,0,1-7.23-2.39,15.45,15.45,0,0,1-4.83-7.11,33,33,0,0,1-1.76-11.32A33.35,33.35,0,0,1,335.63,95a15.28,15.28,0,0,1,4.87-7.1,11.45,11.45,0,0,1,7.16-2.33,11.69,11.69,0,0,1,10.08,5.28c2.6,3.65,3.91,8.9,3.91,15.61s-1.31,11.83-3.91,15.51A11.67,11.67,0,0,1,347.66,127.27Z"/><path class="cls-3" d="M421.53,125.69a18.89,18.89,0,0,0-4,.57,16.39,16.39,0,0,1-3.38.5,3.15,3.15,0,0,1-2.51-.83,5.33,5.33,0,0,1-1.05-2.81,54.49,54.49,0,0,1-.25-6.06V86.76h1.48a15.83,15.83,0,0,0,7.78-1.57c1.46-.82,3.19-2.54,3.19-6.1a7.43,7.43,0,0,0-2.15-5.46,8.16,8.16,0,0,0-6-2.15h-4.27V61.14a41.52,41.52,0,0,0-.45-7,9,9,0,0,0-2.39-4.74,8.69,8.69,0,0,0-6.37-2.9,8.34,8.34,0,0,0-4.58,1.33,8.77,8.77,0,0,0-3.09,3.4,11.71,11.71,0,0,0-1.27,4.62c-.14,1.63-.21,3.81-.21,6.66v9h-.29a8.93,8.93,0,0,0-6.34,2.12,7.25,7.25,0,0,0-2.3,5.49,7.48,7.48,0,0,0,2.18,5.48,8.28,8.28,0,0,0,6.12,2.19H392v31.69a58,58,0,0,0,1.21,13.16,14,14,0,0,0,5.46,8.33c2.74,2,6.73,3,11.86,3,5.41,0,9.48-.78,12.45-2.38a8.41,8.41,0,0,0,4.84-7.63,7.37,7.37,0,0,0-1.87-5.09A5.87,5.87,0,0,0,421.53,125.69Z"/><path class="cls-3" d="M440,45.07a9,9,0,0,0-6.49,2.78,9.61,9.61,0,0,0-2.77,7,9.66,9.66,0,0,0,2.74,7.28,9.14,9.14,0,0,0,6.52,2.6,8.83,8.83,0,0,0,6.4-2.65,9.73,9.73,0,0,0,2.7-7.23,9.48,9.48,0,0,0-2.79-7.3A9.1,9.1,0,0,0,440,45.07Z"/><path class="cls-3" d="M439.78,70a8.26,8.26,0,0,0-6.64,3.11c-1.63,2-2.45,4.87-2.45,8.61V131c0,3.68.82,6.59,2.43,8.65a8.12,8.12,0,0,0,6.66,3.26,8.39,8.39,0,0,0,6.72-3.16c1.69-2,2.55-5,2.55-8.75V81.17a12.1,12.1,0,0,0-2.56-8.12A8.47,8.47,0,0,0,439.78,70Z"/><path class="cls-3" d="M514.49,80.18a29.29,29.29,0,0,0-10.33-7.57,35,35,0,0,0-26.61,0,28.91,28.91,0,0,0-10.29,7.48,33.44,33.44,0,0,0-6.47,11.61,46.64,46.64,0,0,0-2.24,14.79,46.16,46.16,0,0,0,2.21,14.63,33.32,33.32,0,0,0,6.53,11.6,29.7,29.7,0,0,0,10.24,7.6,32.17,32.17,0,0,0,13.26,2.65,33.05,33.05,0,0,0,13.37-2.62,29.07,29.07,0,0,0,10.27-7.53A33.83,33.83,0,0,0,521,121.11a49.65,49.65,0,0,0,0-29.33A33.49,33.49,0,0,0,514.49,80.18Zm-23.7,47.09a11.26,11.26,0,0,1-7.23-2.39,15.45,15.45,0,0,1-4.83-7.11A33,33,0,0,1,477,106.45,33.39,33.39,0,0,1,478.76,95a15.28,15.28,0,0,1,4.87-7.1,11.45,11.45,0,0,1,7.16-2.33,11.69,11.69,0,0,1,10.08,5.28c2.6,3.65,3.91,8.9,3.91,15.61s-1.31,11.83-3.92,15.51A11.64,11.64,0,0,1,490.79,127.27Z"/><path class="cls-3" d="M589.83,89.4a23.06,23.06,0,0,0-2.09-7.22,19.72,19.72,0,0,0-7.78-9A22.05,22.05,0,0,0,568.24,70a23.41,23.41,0,0,0-11.88,3,27,27,0,0,0-6.94,6,12.36,12.36,0,0,0-1-3.85,8.78,8.78,0,0,0-3.16-3.81A8,8,0,0,0,540.78,70a7.77,7.77,0,0,0-6.4,3c-1.51,1.9-2.24,4.59-2.24,8.24V131c0,3.69.83,6.6,2.46,8.66a8.14,8.14,0,0,0,6.63,3.25A8.43,8.43,0,0,0,548,139.8c1.67-2,2.51-5,2.51-8.78v-21.6c0-6.87.37-11.58,1.07-14a14.45,14.45,0,0,1,4.55-6.9,10.26,10.26,0,0,1,6.67-2.43c3.68,0,6,1.21,7.22,3.7,1.33,2.81,2,7,2,12.45V131c0,3.69.83,6.6,2.47,8.66a8.57,8.57,0,0,0,13.38.07c1.63-2,2.45-5,2.45-8.73V98.93A80.11,80.11,0,0,0,589.83,89.4Z"/></g><path class="cls-4" d="M303,73.07a22.33,22.33,0,0,0-11.71-3,21.22,21.22,0,0,0-10.65,2.74,27.74,27.74,0,0,0-7.53,6.57,20,20,0,0,0-6.38-6.51,20.3,20.3,0,0,0-10.81-2.8A22.48,22.48,0,0,0,245,72.79a26.61,26.61,0,0,0-6.68,5.38A9.85,9.85,0,0,0,236,72.8,8.25,8.25,0,0,0,229.59,70,7.85,7.85,0,0,0,223.17,73c-1.55,1.94-2.33,4.72-2.33,8.28v49.34c0,3.91.86,6.94,2.57,9a8.5,8.5,0,0,0,6.87,3.27,8.4,8.4,0,0,0,6.88-3.28c1.65-2.08,2.49-5.11,2.49-9V107.33c0-7,.78-12.45,2.31-16.14,1.38-3.32,4.24-4.94,8.73-4.94,2.09,0,3.55.58,4.45,1.75A10.41,10.41,0,0,1,257,93.21c.25,2.34.38,5.69.38,10v27.48c0,3.94.85,7,2.51,9a8.36,8.36,0,0,0,6.82,3.25,8.56,8.56,0,0,0,6.95-3.24c1.68-2.06,2.54-5.1,2.54-9.05V107.71c0-7.16.54-12.17,1.58-14.84A12.16,12.16,0,0,1,281.64,88a8.26,8.26,0,0,1,5-1.75A5.57,5.57,0,0,1,291.22,88a9.46,9.46,0,0,1,2,4.9,71.73,71.73,0,0,1,.42,8.73v29c0,3.91.86,6.94,2.56,9a9,9,0,0,0,13.83,0c1.68-2.06,2.53-5.1,2.53-9.05V97c0-7-.68-12-2.11-15.29A18.46,18.46,0,0,0,303,73.07Z"/><path class="cls-4" d="M377,80.18a29.29,29.29,0,0,0-10.33-7.57,35,35,0,0,0-26.61,0,28.91,28.91,0,0,0-10.29,7.48,33.44,33.44,0,0,0-6.47,11.61,46.64,46.64,0,0,0-2.24,14.79,46.16,46.16,0,0,0,2.21,14.63,33.32,33.32,0,0,0,6.53,11.6,29.7,29.7,0,0,0,10.24,7.6,32.17,32.17,0,0,0,13.26,2.65,33.05,33.05,0,0,0,13.37-2.62A29.07,29.07,0,0,0,377,132.78a33.73,33.73,0,0,0,6.54-11.67,49.65,49.65,0,0,0,0-29.33A33.49,33.49,0,0,0,377,80.18Zm-23.7,47.09a11.26,11.26,0,0,1-7.23-2.39,15.45,15.45,0,0,1-4.83-7.11,33,33,0,0,1-1.76-11.32A33.35,33.35,0,0,1,341.3,95a15.28,15.28,0,0,1,4.87-7.1,11.45,11.45,0,0,1,7.16-2.33,11.69,11.69,0,0,1,10.08,5.28c2.6,3.65,3.91,8.9,3.91,15.61S366,118.28,363.4,122A11.64,11.64,0,0,1,353.33,127.27Z"/><path class="cls-4" d="M427.2,125.69a18.89,18.89,0,0,0-4,.57,16.39,16.39,0,0,1-3.38.5,3.14,3.14,0,0,1-2.51-.83,5.33,5.33,0,0,1-1.05-2.81,54.49,54.49,0,0,1-.25-6.06V86.76h1.48a15.86,15.86,0,0,0,7.78-1.57c1.45-.82,3.19-2.54,3.19-6.1a7.43,7.43,0,0,0-2.15-5.46,8.16,8.16,0,0,0-6-2.15h-4.27V61.14a41.52,41.52,0,0,0-.45-7,8.89,8.89,0,0,0-2.4-4.74,8.65,8.65,0,0,0-6.36-2.9,8.34,8.34,0,0,0-4.58,1.33,8.87,8.87,0,0,0-3.1,3.4,11.88,11.88,0,0,0-1.26,4.62c-.14,1.63-.21,3.81-.21,6.66v9h-.29a8.91,8.91,0,0,0-6.34,2.12,7.22,7.22,0,0,0-2.3,5.49,7.44,7.44,0,0,0,2.18,5.48,8.28,8.28,0,0,0,6.12,2.19h.63v31.69a58,58,0,0,0,1.21,13.16,14,14,0,0,0,5.46,8.33c2.74,2,6.73,3,11.86,3,5.41,0,9.48-.78,12.45-2.38a8.41,8.41,0,0,0,4.84-7.63,7.37,7.37,0,0,0-1.87-5.09A5.87,5.87,0,0,0,427.2,125.69Z"/><path class="cls-4" d="M445.62,45.07a9,9,0,0,0-6.49,2.78,9.61,9.61,0,0,0-2.77,7,9.66,9.66,0,0,0,2.74,7.28,9.14,9.14,0,0,0,6.52,2.6,8.83,8.83,0,0,0,6.4-2.65,9.73,9.73,0,0,0,2.7-7.23,9.48,9.48,0,0,0-2.79-7.3A9.1,9.1,0,0,0,445.62,45.07Z"/><path class="cls-4" d="M445.45,70a8.24,8.24,0,0,0-6.64,3.11c-1.63,2-2.45,4.87-2.45,8.61V131c0,3.68.82,6.59,2.43,8.65a8.12,8.12,0,0,0,6.66,3.26,8.39,8.39,0,0,0,6.72-3.16c1.69-2,2.55-5,2.55-8.75V81.17a12.1,12.1,0,0,0-2.56-8.12A8.49,8.49,0,0,0,445.45,70Z"/><path class="cls-4" d="M520.16,80.18a29.38,29.38,0,0,0-10.33-7.57,35,35,0,0,0-26.61,0,28.91,28.91,0,0,0-10.29,7.48,33.44,33.44,0,0,0-6.47,11.61,46.64,46.64,0,0,0-2.24,14.79,46.16,46.16,0,0,0,2.21,14.63,33.32,33.32,0,0,0,6.53,11.6,29.7,29.7,0,0,0,10.24,7.6,32.17,32.17,0,0,0,13.26,2.65,33,33,0,0,0,13.36-2.62,29,29,0,0,0,10.28-7.53,33.83,33.83,0,0,0,6.54-11.67,49.65,49.65,0,0,0,0-29.33A33.49,33.49,0,0,0,520.16,80.18Zm-23.7,47.09a11.26,11.26,0,0,1-7.23-2.39,15.45,15.45,0,0,1-4.83-7.11,33,33,0,0,1-1.76-11.32A33.39,33.39,0,0,1,484.43,95a15.28,15.28,0,0,1,4.87-7.1,11.45,11.45,0,0,1,7.16-2.33,11.69,11.69,0,0,1,10.08,5.28c2.6,3.65,3.91,8.9,3.91,15.61s-1.32,11.83-3.92,15.51A11.64,11.64,0,0,1,496.46,127.27Z"/><path class="cls-4" d="M595.5,89.4a22.8,22.8,0,0,0-2.1-7.22,19.65,19.65,0,0,0-7.77-9A22.05,22.05,0,0,0,573.91,70,23.41,23.41,0,0,0,562,73a27,27,0,0,0-6.94,6,12.36,12.36,0,0,0-1-3.85,8.78,8.78,0,0,0-3.16-3.81A8,8,0,0,0,546.44,70a7.76,7.76,0,0,0-6.39,3c-1.51,1.9-2.24,4.59-2.24,8.24V131c0,3.69.83,6.6,2.46,8.66a8.14,8.14,0,0,0,6.63,3.25,8.43,8.43,0,0,0,6.75-3.13c1.67-2,2.51-5,2.51-8.78v-21.6c0-6.87.37-11.58,1.07-14a14.45,14.45,0,0,1,4.55-6.9,10.26,10.26,0,0,1,6.67-2.43c3.68,0,6,1.21,7.22,3.7,1.33,2.81,2,7,2,12.45V131c0,3.69.83,6.6,2.47,8.66a8.57,8.57,0,0,0,13.38.07c1.63-2,2.45-5,2.45-8.73V98.93A80.11,80.11,0,0,0,595.5,89.4Z"/><g class="cls-2"><path class="cls-3" d="M213.78,89.47a54.33,54.33,0,0,0-6-.16q-32.23,0-64.48,0c-5,0-7.65-2.39-7.06-6.15.66-4.17,3.8-4.49,7.16-4.48q26,0,52,0c7.59,0,12.49-4.26,12.53-10.58.05-6.67-4.8-10.87-12.75-10.87q-30.94,0-61.91,0c.46-.22,11.83-7.18,7.35-15.47-2.86-5.29-8.79-7.48-14.93-4.65-14.8,6.81-48.79,23.11-48.79,23.11l-24.33,23,1.24,58.4s124.38,1.46,142.54,1.39c6.76,0,11.51-4.5,11.58-10.52.06-6.31-4.68-10.83-11.67-10.92-7.16-.09-14.33,0-21.49,0-10.67,0-21.33.08-32,0-5.44,0-8.64-4.39-5.69-7.87,1.41-1.67,4.55-2.61,6.93-2.63,21.32-.2,42.65-.11,64-.11a44.11,44.11,0,0,0,6-.19c5.9-.81,9.7-5.28,9.51-11S219.55,90.13,213.78,89.47Z"/></g><path class="cls-4" d="M219.45,89.47a54.33,54.33,0,0,0-6-.16q-32.24,0-64.48,0c-5,0-7.65-2.39-7.06-6.15.66-4.17,3.8-4.49,7.16-4.48q26,0,52,0c7.59,0,12.49-4.26,12.53-10.58,0-6.67-4.8-10.87-12.75-10.87q-30.94,0-61.91,0c.46-.22,11.83-7.18,7.35-15.47-2.86-5.29-8.79-7.48-14.93-4.65-14.8,6.81-48.79,23.11-48.79,23.11l-24.33,23,1.24,58.4S183.85,143,202,142.93c6.76,0,11.51-4.5,11.57-10.52.07-6.31-4.67-10.83-11.66-10.92-7.16-.09-14.33,0-21.49,0-10.67,0-21.33.08-32,0-5.44,0-8.64-4.39-5.69-7.87,1.41-1.67,4.55-2.61,6.93-2.63,21.32-.2,42.65-.11,64-.11a44.11,44.11,0,0,0,6-.19c5.9-.81,9.7-5.28,9.51-11S225.22,90.13,219.45,89.47Z"/></g></g></svg>